<?xml version="1.0" encoding="utf-8"?>
<!-- Generator: Adobe Illustrator 25.0.0, SVG Export Plug-In . SVG Version: 6.00 Build 0)  -->
<svg version="1.1" id="Layer_1" xmlns="http://www.w3.org/2000/svg" xmlns:xlink="http://www.w3.org/1999/xlink" x="0px" y="0px"
	 viewBox="0 0 44 44" style="enable-background:new 0 0 44 44;" xml:space="preserve">
<g>
	<path d="M16.5,41.7c-1.8,0-3.2-1.4-3.2-3.2s1.4-3.2,3.2-3.2s3.2,1.4,3.2,3.2S18.3,41.7,16.5,41.7z M16.5,38c-0.3,0-0.5,0.2-0.5,0.5
		s0.2,0.5,0.5,0.5s0.5-0.2,0.5-0.5S16.8,38,16.5,38z"/>
</g>
<g>
	<path d="M36.7,41.7c-1.8,0-3.2-1.4-3.2-3.2s1.4-3.2,3.2-3.2c1.8,0,3.2,1.4,3.2,3.2S38.4,41.7,36.7,41.7z M36.7,38
		c-0.3,0-0.5,0.2-0.5,0.5s0.2,0.5,0.5,0.5s0.5-0.2,0.5-0.5S36.9,38,36.7,38z"/>
</g>
<g>
	<path d="M17.6,30.7c-2.4,0-4.4-1.7-4.9-4.1L9.7,11.3c0,0,0-0.1,0-0.1L8,3.2H1.8c-0.8,0-1.4-0.6-1.4-1.4s0.6-1.4,1.4-1.4h7.3
		c0.7,0,1.2,0.5,1.3,1.1l1.6,8.1h30c0.4,0,0.8,0.2,1.1,0.5c0.3,0.3,0.4,0.7,0.3,1.1l-2.9,15.4c-0.5,2.4-2.5,4.1-4.9,4.1
		c0,0-0.1,0-0.1,0L17.6,30.7C17.7,30.7,17.7,30.7,17.6,30.7z M12.7,12.4l2.7,13.7c0.2,1.1,1.2,1.9,2.3,1.8h17.8
		c1.1,0,2.1-0.8,2.3-1.8l2.6-13.7H12.7z"/>
</g>
</svg>
