<?xml version="1.0" encoding="utf-8"?>
<!-- Generator: Adobe Illustrator 25.0.0, SVG Export Plug-In . SVG Version: 6.00 Build 0)  -->
<svg version="1.1" id="Layer_1" xmlns="http://www.w3.org/2000/svg" xmlns:xlink="http://www.w3.org/1999/xlink" x="0px" y="0px"
	 viewBox="0 0 44 44" style="enable-background:new 0 0 44 44;" xml:space="preserve">
<g>
	<path d="M36.7,39.9c-0.8,0-1.4-0.6-1.4-1.4v-3.7c0-3.3-2.7-6-6-6H14.7c-3.3,0-6,2.7-6,6v3.7c0,0.8-0.6,1.4-1.4,1.4S6,39.3,6,38.5
		v-3.7c0-4.8,3.9-8.7,8.7-8.7h14.7c4.8,0,8.7,3.9,8.7,8.7v3.7C38,39.3,37.4,39.9,36.7,39.9z"/>
</g>
<g>
	<path d="M22,21.5c-4.8,0-8.7-3.9-8.7-8.7s3.9-8.7,8.7-8.7s8.7,3.9,8.7,8.7S26.8,21.5,22,21.5z M22,6.9c-3.3,0-6,2.7-6,6
		c0,3.3,2.7,6,6,6c3.3,0,6-2.7,6-6C28,9.5,25.3,6.9,22,6.9z"/>
</g>
</svg>
